<svg width="364" height="364" viewBox="0 0 364 364" fill="none" xmlns="http://www.w3.org/2000/svg">
<g clip-path="url(#clip0_17_2)">
<path d="M325.84 -0.279785H38.1497C16.9254 -0.279785 -0.280273 16.9259 -0.280273 38.1502V325.84C-0.280273 347.065 16.9254 364.27 38.1497 364.27H325.84C347.064 364.27 364.27 347.065 364.27 325.84V38.1502C364.27 16.9259 347.064 -0.279785 325.84 -0.279785Z" fill="black"/>
<path d="M167.75 266.64L166.54 266.72L166.94 265.95C167.36 266.1 167.6 266.36 167.75 266.64ZM82.0103 107.77C77.6003 107.07 73.7003 106.03 68.4803 108.43C67.5303 107.6 65.0703 106.77 64.1903 107.32L64.5103 107.6C63.3003 108.24 62.8103 106.5 61.9203 107.6L61.0303 108.89C60.4903 108.61 59.2003 108.61 59.4303 108.06C58.6603 108.7 56.9603 107.78 56.9203 109.44C56.6403 109.43 56.4003 109.4 56.1503 109.37L19.5303 192.78L66.1503 269.65C66.3503 269.59 66.5503 269.54 66.7403 269.51V269.88C68.0403 269.51 69.0303 268.31 70.5403 268.5C69.8803 269.06 70.6103 270.06 70.9203 270.52C71.2503 271.6 69.3503 272.41 69.7003 273.08L70.7203 273.01C71.5903 272.11 72.1803 270.84 73.7203 271.07C74.1803 270.15 72.7803 269.88 72.3403 269.87C73.6503 269.32 75.7903 270.24 76.3603 269.04C75.8203 269.13 75.6003 268.94 75.6103 268.58C75.6103 268.76 77.2203 266.2 77.8303 266.65C77.5603 267.35 77.9003 267.06 77.4903 267.82C78.2803 268.21 78.7303 267.8 79.2603 267.43C79.2603 267.39 79.2603 267.36 79.2603 267.32L79.3103 267.4C79.5903 267.21 79.8903 267.04 80.2903 267C79.0603 268.13 81.7203 266.8 80.9103 268.04C80.5003 267.93 80.2303 267.47 79.8103 267.66C79.4003 268.13 80.7003 267.99 79.9503 268.47L79.3103 267.4C79.3103 267.4 79.2803 267.42 79.2603 267.43C79.3003 268.92 77.3603 267.64 77.6303 269.5C80.4303 269.85 80.9003 268.04 83.2303 267.01C84.3203 267.1 85.0703 266.91 86.1603 267.29C86.0203 267.35 85.6803 267.36 85.8203 267.59C88.0803 268.76 87.3903 267.03 89.1703 268.28C89.6803 267.55 90.6103 267.24 91.5803 267.15L45.4303 191.05L82.0103 107.74V107.77ZM295.71 91L295.26 91.03C295.46 91.18 295.68 91.29 295.92 91.35L295.71 91ZM306.17 254.85C305.61 255.59 304.93 256.68 305.72 257.32C305.74 256.57 306.29 256.58 306.91 256.72C306.72 256.97 306.61 257.32 306.34 257.46C306.53 257.33 306.67 257.25 306.81 257.17L306.67 257.5L304.81 257.62C304.64 257.53 304.47 257.43 304.29 257.31C304.32 256.84 304.97 256.22 304.76 256.17C303.93 255.99 303.09 256.86 303.21 257.56C303.03 257.62 302.89 257.64 302.76 257.66C302.58 257.27 302.36 256.85 301.96 256.81C301.86 256.67 301.71 256.55 301.42 256.52C301.23 257.82 299.62 257.28 299.32 257.88C299.7 257.99 300.15 257.95 300.61 257.88C300.61 257.89 300.6 257.9 300.59 257.91L298.82 258.03C298.62 257.81 298.56 257.63 299.36 257.42C298.23 256.19 298.52 257.69 297.94 258.09L297.33 258.13L296.42 257.56C296.49 256.62 297.82 257 297.59 256.67L296.98 256.83C297.55 256.09 299.9 256.4 301.26 255.26L298.36 254.93C294.82 256.28 290.24 255.3 287.31 257.54C287.35 257.54 287.4 257.52 287.44 257.51C287.39 257.6 287.38 257.78 287.36 258.14L287.21 257.92L286.65 258.66C285.9 257.84 284.6 257.75 283.46 257.13C283.947 257.483 284.227 257.89 284.3 258.35C284.28 258.62 284.25 258.83 284.2 259.01L283.13 259.08C283.24 258.73 283.51 258.63 282.88 258.25C283.26 258.53 283.01 258.96 282.61 259.11H282.47C282.02 258.85 281.4 258.75 281.1 258.46L281.29 258.02C281.39 258.06 281.49 258.13 281.58 258.17C281.68 258.09 281.53 258 281.36 257.87L281.48 257.6C281.72 257.84 282.02 257.93 281.72 257.6C281.76 257.5 281.71 257.39 281.62 257.29L318.56 173.14L270.22 93.43C271.44 94 273.45 93.34 274.2 92.89C274.33 92.92 274.53 92.92 274.85 92.84L274.15 92.46L276.65 92.3C277.24 92.83 277.63 92.53 278.06 92.21L279.14 92.14C279.75 92.6 280.49 93.57 280.66 92.74C280.81 92.85 281.01 92.65 281.21 92.4L281.67 92.53C281.48 92.49 281.33 92.44 281.21 92.39C281.32 92.24 281.43 92.09 281.53 91.97L282.38 91.91L283.34 91.97C283.64 92.1 284.02 91.95 284.33 91.79H284.37L284.66 92.21C285.23 92.1 285.25 92.37 285.19 92.5C285.15 92.47 285.12 92.46 285.09 92.43C285.07 92.62 285.15 92.58 285.19 92.5C287.28 93.94 288.21 91.49 290.44 92.71C290.75 92.04 290.14 91.74 289.89 91.41L292.04 91.27L290.78 92.68C291.72 91.94 291.88 91.94 292.44 91.24L294.39 91.11C295.13 91.58 295.68 92.12 295.51 92.83C297.29 92.83 294.9 91.94 295.75 91.36L295.91 91.4L344.45 171.44L307.27 256.13C306.65 255.84 306.1 255.52 306.15 254.89L306.17 254.85ZM274.94 93.98C274.39 93.62 272.73 94.47 272 94.88C272.88 94.57 275.11 94.68 274.94 93.98ZM294.22 91.68L293.03 92.28L294.07 93.55C295.47 92.99 294.09 92.79 294.22 91.68ZM304.9 254.3C303.75 254.43 302.35 255 301.84 255.56L302.28 255.94C303.19 255.18 304.44 255.45 304.9 254.31V254.3ZM284.76 91.73L284.49 91.75L284.65 91.89C284.7 91.81 284.72 91.79 284.75 91.73H284.76ZM274.01 92.69C273.98 92.62 273.98 92.53 273.98 92.44L271.15 92.63C272.1 92.74 272.83 92.47 274.02 92.69H274.01ZM270.95 93.35C270.88 93.17 270.81 92.89 270.66 92.66L269.88 92.71C270.13 93.13 270.54 93.32 270.95 93.35ZM245.7 97.9C245.57 97.25 246.29 96.97 246.74 96.81L246.55 96.49C246.45 96.47 246.33 96.45 246.19 96.43L246.47 96.36L246.08 95.72C245.83 95.79 245.56 95.87 245.25 95.99C247.05 95.67 244.58 97.37 245.7 97.9ZM294 174.74L257.44 258C254.33 257.96 251.69 258.82 248.53 259.4C247.31 259.58 247.72 258.39 247.12 258C244.42 258 243.87 259.76 241.33 260.27C241.65 259.78 242.17 258.44 241.06 258.45C240.88 258.9 240.79 259.6 240.08 259.37L240.4 258.88C239.72 258.24 239.15 258.93 237.81 258.72C235.48 258.9 233.33 260.12 231.52 261.92C229.45 261.9 231.63 260.28 231.21 259.97C232.7 260.43 232.2 259.64 232.48 259.09C232.68 258.97 232.87 258.83 233.02 258.7C232.71 258.78 232.57 258.92 232.48 259.09C231.74 259.57 230.83 259.89 230.36 258.84C229.29 258.98 228.81 258.96 227.79 259.76C228.3 259.36 228.8 259.91 228.33 260.44C227.43 260.12 225.22 260.68 225.26 259.32C220.2 259.92 214.5 260.01 209.06 260.43C208.19 261.19 209.77 260.65 209.3 261.18C208.03 262.18 208.21 260.78 207.2 261.57L207.59 260.8C205.99 260.8 204.4 262.27 202.91 263.05C203.11 262.19 201.6 262.44 202.85 261.85C202.11 262.04 200.95 258.34 200.42 259.15L201.5 262.6C201.48 262.95 200.41 262.8 200.53 263.03C199.83 262.38 198.97 261.62 198.51 261.66C198.23 260.79 199.38 260.9 200.01 260.88C200.01 259.4 197.84 260.07 198.66 258.66C197.33 258.99 198.9 259.4 198.14 260L196.95 259.76L197.89 260.2C196.94 260.71 196.68 261.85 195.32 261.12L194.06 262.65C193.85 261.49 193.06 262.5 192.35 262.27L192.74 261.5C191.82 261.6 191.45 261.42 190.84 261.03C191.29 259.97 191.69 261.22 191.85 260.24L190.81 259.96C190.86 260.62 190.25 261.18 191 261.53C190.14 262.82 189.69 263.88 187.32 263.93C186.18 262.87 188.4 262.85 187.88 261.77C185.4 261.45 185.08 264.9 183.63 264.86C181.77 264.52 181.95 265.55 180.1 265.75C180.64 264.94 178.75 265.01 178.36 264.3L179.04 263.45C178.49 263.73 177.93 263.46 178.06 262.89C178.23 263.92 175.72 264.02 174.47 264.6L174.75 265.47C173.77 265.83 172.42 266.48 171.35 266.32C171.45 266.3 171.54 266.27 171.66 266.25L170.84 266.18C171 266.26 171.17 266.3 171.35 266.32C171.23 266.35 171.15 266.38 171.05 266.42L168.42 266.59C168.43 266.34 168.46 266.08 168.5 265.82C168.95 266.25 169.65 265.93 170.36 266.16C172.3 265.26 173.73 263.29 175.74 263.59C176.46 261.38 174.42 263.93 173.4 263.23C173.42 263.1 173.49 263.05 173.56 263.03C173.47 263.03 173.4 263.03 173.31 262.98C174.01 262.67 175.14 262.25 175.26 261.14C174.08 261.44 174.54 263.34 173 262.52C171.94 263.19 170.94 261.56 170.26 261.45C169.58 262.3 169.66 264.03 167.84 263.82L168.55 262.56C166.51 262.67 167.71 264.39 165.82 264.46C166.49 264.56 165.26 265.69 166.52 265.64C165.94 266.32 164.58 266.54 163.53 266.26C163.32 266.43 163.43 266.62 163.47 266.91L162.95 266.94L162.12 266.34C162.22 266.67 162.11 266.86 161.92 267.01L160.3 267.12C160.29 266.64 160.53 266.16 160.81 265.73L161 265.82C160.84 265.32 160.94 265.16 160.24 264.93C159.82 265.56 160.32 266.37 160.11 267.13L158.91 267.21C158.31 267.06 157.46 267.52 156.28 267C156.82 265.59 158.12 266.9 158.39 265.62C157.1 265.47 156.82 266.46 155.46 266.2C155.59 265.56 156.9 265.41 156.76 264.6L155.87 264.27C157.99 264.05 155.39 262.6 157.02 262.15C156.2 261.64 156 263.34 154.84 262.54C155.19 263.11 156.15 264.14 155.12 264.74L153.89 264.42C153.34 263.79 155.05 262.88 154.23 262.38L153 262.93C153.07 263.33 153.69 263.5 153.34 264.08C152.58 263.69 152.25 265.73 151.44 266.39C150.76 266.4 150.21 266.35 149.94 265.89C148.54 267.02 146.73 267.26 145.3 268.09L144.95 268.11C145.21 267.48 144.35 267.06 143.79 266.59C145.02 266.34 144.95 265.06 144.81 264.24C144.06 264.43 143.65 265.78 144.06 266.18C142.76 265.74 143.25 267.12 142.08 266.34C141.33 265.95 142.36 265.06 142.08 264.59C140.71 264.62 141.81 266.17 140.31 265.96C140.38 265.78 140.51 265.72 140.38 265.49C139.56 265.27 138.74 265.93 138.61 266.58C137.65 264.97 136.22 266.92 136.28 265.29C134.37 265.85 136.63 266.16 136.28 266.75C135.54 267.52 134.03 267.03 133.56 266.8C134.03 266.73 134.44 266.26 134.92 266.48L134.44 265.38C131.98 264.74 133.08 268.03 130.69 267.2C131.85 266.53 131.03 266.32 131.57 265.49C131.23 265.79 129.39 265.6 130.55 266.39C129.67 266.35 129.05 266.19 128.43 266.03C127.68 266.51 126.86 266.88 126.46 267.64C125.23 267.6 124.27 266.87 123.65 266.41C121.13 267.39 118.66 266.16 116.01 267.2L116.21 267.25C115.96 267.25 115.79 267.25 115.67 267.29L68.5103 189.52L104.43 107.69C105.24 107.44 106.05 107.34 107.29 107.9C106.83 107.44 108.02 106.2 108.84 106.34C109.32 106.56 109.46 106.79 109.19 107.21L110.22 106.61C111.65 108.15 112.88 107.02 114.86 107.44L114.79 107.91C115.47 107.32 116.22 106.84 117.32 106.93L117.18 107.86C118.55 108.42 118.06 105.87 119.57 106.36C119.5 105.37 118.54 104.93 118.34 104C118.75 104.98 120.33 105.03 119.92 104.34C121.35 103.84 120.93 104.3 121.07 104.53L121.89 103.87C122.92 103.85 122.3 105.14 121.96 105.73C122.85 104.61 123.94 105.28 125.03 105.38L124.62 105.85L126.06 105.93L125.45 106.64C126.07 106.8 126.61 106.56 127.08 106.49C127.35 105.21 126.81 106.61 126.06 105.93C126.94 105.1 128.24 104.96 129.47 105.28L128.73 106.63C129.62 107.25 129.13 106.15 129.34 105.92C130.63 105.2 130.98 106.06 131.73 106.75C133.78 105.25 136.12 108.6 137.82 106.53L138.09 107.28C140.47 105.49 143.49 107.63 145.32 105.21C148.53 107.7 147.15 102.67 150.09 104.9L149.97 104.52C159.15 104.37 168.96 105.14 177.43 103.28L177.45 103.82C191.3 103.84 204.66 101.82 218.36 101.34C219.6 100.76 218.76 99.62 219.81 98.95C220.29 98.97 221.37 98.83 221.42 99.49C220.52 99.91 221.08 100.47 220.78 100.75C220.5 100.78 220.22 100.83 219.98 100.94C220.45 100.94 220.68 100.86 220.78 100.75C222.31 100.58 224.35 101.21 225.67 100.31L224.47 99.53C224.98 99.14 225.83 99.32 226.32 99.33C226.14 99.78 226.91 100.67 226.51 100.9C229.26 98.58 228.83 101.66 231.21 100.66C231.58 98.81 234.53 97.12 236.45 95.7L237.54 96.1C236.14 96.18 237.65 97.42 235.91 97.45C237.4 97.88 238.69 97.01 240.08 97.21C240.16 97.34 240.26 97.45 240.39 97.54L240.83 97.43C240.57 97.31 240.32 97.25 240.08 97.22C239.78 96.78 239.81 96.18 240.35 95.94C241.21 96.13 241.34 97.04 242.31 97.07L241.4 97.7C242.08 98.34 242.58 97.4 243.16 97.26C243.4 98.01 244.85 98.05 244.65 98.91C245.77 97.89 246.29 98.25 247.39 97.76L247.82 98.48C247.51 98.64 247.18 98.78 246.82 98.78C247.25 98.91 247.77 99.14 248.32 99.3L294.03 174.67L294 174.74ZM123.04 106.18C122.49 105.85 121.81 106.73 121.13 106.45L121.4 106.04L120.24 107.29C121.67 107.38 121.81 106.44 123.04 106.18ZM123.38 106.47L122.97 107.52C123.11 107.46 123.38 107.34 123.51 107.57C123.78 107.15 123.58 106.81 123.38 106.47ZM146.86 264.26C146.51 264.56 145.63 264.52 145.35 264.06L145.7 264.64C146.11 264.45 147 265.07 146.86 264.27V264.26ZM149.04 264.16L150 263.74L148.84 264.11L149.04 264.16ZM150.61 264.48L150.54 264.07L149.32 264.91L150.61 264.48ZM151.71 264.87L150.07 265.31L150.62 265.35L151.71 264.87ZM161.4 262.12C160.21 261.88 160.59 263.54 159.77 263.48C159.31 263.06 159.82 262.85 159.48 262.56C158.53 262.11 157.57 262.25 157.09 262.9C157.36 263.36 157.78 264.63 157.44 265.22C158.88 264.73 159.49 262.61 160.31 264.15L161.4 262.12ZM163.05 262.79C162.85 262.16 161.96 262.39 161.83 262.96C162.15 262.48 162.72 262.74 163.05 262.79ZM164.33 263.81L163.05 264.27L163.43 264.45C163.91 264.45 164.46 264.19 164.33 263.81ZM172.7 262.11L172.36 262.06C172.43 261.77 171.6 261.17 172.48 260.95C171.77 260.73 171.26 262.61 172.7 262.11ZM177.22 260.84C177 261.17 175.89 261.18 176.54 261.68L177.22 260.84ZM179.42 261.77L178.63 261.29L178.46 261.74L179.42 261.77ZM184.22 260.84C183.32 260.52 182.18 262.43 181.6 261.09C179.17 261.97 182.32 263.34 179.52 264.04C182.24 264.57 180.71 261.31 183.13 261.91C181.93 261.14 183.86 261.19 184.22 260.83V260.84ZM184.79 263.12C184.89 262.42 183.77 262.44 183.46 262.92C183.79 262.98 184.41 263.9 184.79 263.12ZM188.11 259.59L187.38 260.31L188.37 261.41C189.28 260.78 187.25 260.89 188.1 259.59H188.11ZM189.1 260C188.84 260.12 188.61 260.24 188.83 260.35C188.86 260.23 188.97 260.09 189.1 260ZM189.57 260.16L189.6 259.75C189.53 259.81 189.38 259.87 189.24 259.94C189.37 259.9 189.51 259.94 189.57 260.16ZM193.71 261.14L193.59 260.77L193.09 260.22L193.7 261.14H193.71ZM195.47 260.16C194.76 259.93 194.36 260.16 194.6 260.92C195.38 260.86 194.92 260.43 195.47 260.16ZM202.52 231.38L195.9 130.72L162.25 132.93L168.87 233.59L202.52 231.38ZM234.58 98.97C234.35 98.76 233.59 99.35 233.86 99.69C234.21 99.33 234.74 99.47 234.58 98.97ZM242.76 98.67C241.98 98.99 241.28 99.2 240.38 99.84C240.73 99.75 241.19 100.12 241.11 99.49C241.63 99.63 242.62 99.25 242.76 98.67Z" fill="#FAFF00"/>
</g>
<defs>
<clipPath id="clip0_17_2">
<rect width="364" height="364" fill="white"/>
</clipPath>
</defs>
</svg>
